<svg width="46" height="46" xmlns="http://www.w3.org/2000/svg" xmlns:xlink="http://www.w3.org/1999/xlink" xml:space="preserve" overflow="hidden"><g transform="translate(-72 -262)"><g><g><g><g><path d="M92.2188 275.656 101.594 281.703 92.2188 287.755 92.2188 275.656Z" fill="#7030A0" fill-rule="nonzero" fill-opacity="1"/><path d="M108.625 273.312 108.625 290.188 82.375 290.188 82.375 273.312ZM112.375 291.125 111.438 291.125 111.438 271.906 112.375 271.906C112.893 271.906 113.312 271.487 113.312 270.969 113.312 270.451 112.893 270.031 112.375 270.031L96.4375 270.031 96.4375 269.094C96.4375 268.576 96.0178 268.156 95.5 268.156 94.9822 268.156 94.5625 268.576 94.5625 269.094L94.5625 270.031 78.625 270.031C78.1072 270.031 77.6875 270.451 77.6875 270.969 77.6875 271.487 78.1072 271.906 78.625 271.906L79.5625 271.906 79.5625 291.125 78.625 291.125C78.1072 291.125 77.6875 291.545 77.6875 292.062 77.6875 292.58 78.1072 293 78.625 293L92.9406 293 85.7219 300.219C85.3555 300.589 85.3587 301.186 85.7289 301.552 86.0991 301.919 86.6962 301.916 87.0625 301.545L94.5625 294.045 94.5625 302.375C94.5625 302.893 94.9822 303.312 95.5 303.312 96.0178 303.312 96.4375 302.893 96.4375 302.375L96.4375 294.031 103.938 301.531C104.304 301.898 104.898 301.898 105.264 301.531 105.63 301.165 105.63 300.571 105.264 300.205L98.0594 293 112.375 293C112.893 293 113.312 292.58 113.312 292.062 113.312 291.545 112.893 291.125 112.375 291.125Z" fill="#7030A0" fill-rule="nonzero" fill-opacity="1"/></g></g></g></g></g></svg>